<svg width="20" height="20" viewBox="0 0 20 20" fill="none" xmlns="http://www.w3.org/2000/svg">
<path d="M8.3601 6.15639C8.3601 6.71889 8.3601 7.26409 8.5375 7.77466C6.6726 9.96409 1.74856 15.7492 1.2899 16.1905C1.19875 16.2723 1.12583 16.3724 1.07588 16.4842C1.02593 16.596 1.00008 16.7171 1 16.8396C1 17.2074 1.225 17.5622 1.41538 17.7612C1.70096 18.0598 2.92115 19.1891 3.14615 18.9727C3.8125 18.3237 3.94663 18.1506 4.21923 17.8824C4.63029 17.48 4.17596 16.6578 4.31875 16.3247C4.46154 15.9915 4.61298 15.9266 4.85962 15.8747C5.10625 15.8227 5.54327 16.0001 5.8851 16.0045C6.24423 16.0088 6.43894 15.8574 6.70721 15.6064C6.92356 15.4074 7.07933 15.2213 7.08365 14.9314C7.09231 14.542 6.52981 14.0271 6.94952 13.616C7.36923 13.205 7.975 13.8843 8.42067 13.8324C8.86635 13.7804 9.40721 13.1617 9.46346 12.8977C9.51971 12.6338 8.95721 11.9545 9.04375 11.5694C9.07404 11.4396 9.33798 11.1367 9.53702 11.0934C9.73606 11.0501 10.6187 11.392 10.8178 11.3487C11.0601 11.2968 11.3413 11.0415 11.5707 10.8987C12.2413 11.1886 12.8514 11.3054 13.6346 11.3054C16.5986 11.3054 19 8.99486 19 6.14774C19 3.30063 16.5986 1 13.6346 1C10.6707 1 8.3601 3.30928 8.3601 6.15639V6.15639ZM16.2308 5.15385C16.2308 5.4277 16.1496 5.6954 15.9974 5.9231C15.8453 6.1508 15.629 6.32827 15.376 6.43306C15.123 6.53786 14.8446 6.56528 14.576 6.51186C14.3074 6.45843 14.0607 6.32656 13.8671 6.13292C13.6734 5.93928 13.5416 5.69256 13.4881 5.42397C13.4347 5.15538 13.4621 4.87698 13.5669 4.62398C13.6717 4.37097 13.8492 4.15472 14.0769 4.00258C14.3046 3.85044 14.5723 3.76923 14.8462 3.76923C15.2134 3.76923 15.5656 3.91511 15.8252 4.17478C16.0849 4.43444 16.2308 4.78662 16.2308 5.15385Z" stroke="#4C78FA" stroke-linejoin="round"/>
</svg>
