<svg width="20" height="27" viewBox="0 0 20 27" fill="none" xmlns="http://www.w3.org/2000/svg">
<path d="M14.5 10.8437V5.5C14.5 4.30653 14.0259 3.16193 13.182 2.31802C12.3381 1.47411 11.1935 1 10 1C8.80653 1 7.66193 1.47411 6.81802 2.31802C5.97411 3.16193 5.5 4.30653 5.5 5.5V10.8437" stroke="#9E9E9E" stroke-linecap="round" stroke-linejoin="round"/>
<path d="M16.3 10.8438H3.7C2.20883 10.8438 1 12.0526 1 13.5438V23.4438C1 24.9349 2.20883 26.1438 3.7 26.1438H16.3C17.7912 26.1438 19 24.9349 19 23.4438V13.5438C19 12.0526 17.7912 10.8438 16.3 10.8438Z" stroke="#9E9E9E" stroke-linecap="round" stroke-linejoin="round"/>
</svg>
